<svg width="48" height="48" viewBox="0 0 48 48" fill="none" xmlns="http://www.w3.org/2000/svg">
<circle cx="24" cy="24" r="24" transform="rotate(180 24 24)" fill="#0051FF"/>
<path d="M19.0001 25.0001L26.5901 25.0001L23.2901 28.2901C23.1018 28.4784 22.996 28.7338 22.996 29.0001C22.996 29.2664 23.1018 29.5218 23.2901 29.7101C23.4784 29.8984 23.7338 30.0042 24.0001 30.0042C24.2664 30.0042 24.5218 29.8984 24.7101 29.7101L29.7101 24.7101C29.8011 24.615 29.8725 24.5028 29.9201 24.3801C30.0201 24.1366 30.0201 23.8635 29.9201 23.6201C29.8725 23.4973 29.8011 23.3852 29.7101 23.2901L24.7101 18.2901C24.6171 18.1963 24.5065 18.1219 24.3847 18.0712C24.2628 18.0204 24.1321 17.9943 24.0001 17.9943C23.8681 17.9943 23.7374 18.0204 23.6155 18.0712C23.4937 18.1219 23.3831 18.1963 23.2901 18.2901C23.1964 18.383 23.122 18.4936 23.0712 18.6155C23.0204 18.7373 22.9943 18.868 22.9943 19.0001C22.9943 19.1321 23.0204 19.2628 23.0712 19.3846C23.122 19.5065 23.1964 19.6171 23.2901 19.7101L26.5901 23.0001L19.0001 23.0001C18.7349 23.0001 18.4805 23.1054 18.293 23.293C18.1055 23.4805 18.0001 23.7348 18.0001 24.0001C18.0001 24.2653 18.1055 24.5196 18.293 24.7072C18.4805 24.8947 18.7349 25.0001 19.0001 25.0001Z" fill="#D5DAE1"/>
</svg>
