<svg width="109" height="109" viewBox="0 0 109 109" fill="none" xmlns="http://www.w3.org/2000/svg">
<path d="M52.9707 1.83002C52.9707 0.820017 53.7907 0 54.8007 0C55.8107 0 56.6307 0.820017 56.6307 1.83002C56.6307 2.84002 55.8107 3.66 54.8007 3.66C53.7907 3.66 52.9707 2.84002 52.9707 1.83002Z" fill="#182297"/>
<path d="M66.691 3.2801C66.951 2.3101 67.961 1.73012 68.931 1.99012C69.901 2.25012 70.481 3.26011 70.221 4.23011C69.961 5.20011 68.951 5.78012 67.981 5.52012C67.011 5.26012 66.431 4.2501 66.691 3.2801Z" fill="#182297"/>
<path d="M79.5609 8.24997C80.0709 7.37997 81.1909 7.07996 82.0609 7.58996C82.9309 8.09996 83.2309 9.21996 82.7209 10.09C82.2109 10.96 81.0909 11.26 80.2209 10.75C79.3509 10.24 79.0509 9.11997 79.5609 8.24997Z" fill="#182297"/>
<path d="M90.6907 16.3999C91.4107 15.6899 92.5607 15.6899 93.2707 16.4099C93.9807 17.1299 93.9807 18.2799 93.2607 18.9899C92.5407 19.6999 91.3907 19.6999 90.6807 18.9799C89.9707 18.2599 89.9707 17.1099 90.6907 16.3999Z" fill="#182297"/>
<path d="M99.3208 27.1701C100.201 26.6701 101.311 26.9801 101.811 27.8501C102.311 28.7301 102.001 29.8401 101.131 30.3401C100.251 30.8401 99.1408 30.5301 98.6408 29.6601C98.1408 28.7801 98.4508 27.6701 99.3208 27.1701Z" fill="#182297"/>
<path d="M104.841 39.81C105.821 39.56 106.811 40.14 107.071 41.12C107.321 42.1 106.741 43.09 105.761 43.35C104.781 43.6 103.791 43.02 103.531 42.04C103.281 41.06 103.861 40.07 104.841 39.81Z" fill="#182297"/>
<path d="M106.891 53.45C107.901 53.45 108.711 54.28 108.701 55.29C108.701 56.3 107.871 57.11 106.861 57.1C105.851 57.1 105.041 56.27 105.051 55.26C105.051 54.25 105.881 53.44 106.891 53.45Z" fill="#182297"/>
<path d="M105.321 67.1601C106.291 67.4301 106.861 68.4401 106.591 69.4101C106.321 70.3801 105.311 70.95 104.341 70.68C103.371 70.41 102.801 69.4 103.071 68.43C103.341 67.46 104.351 66.8901 105.321 67.1601Z" fill="#182297"/>
<path d="M100.241 79.9799C101.111 80.4899 101.391 81.6199 100.881 82.4799C100.371 83.3499 99.2409 83.6299 98.3809 83.1199C97.5109 82.6099 97.2309 81.4799 97.7409 80.6199C98.2509 79.7499 99.3809 79.4699 100.241 79.9799Z" fill="#182297"/>
<path d="M91.9909 91.04C92.6909 91.76 92.6809 92.92 91.9609 93.62C91.2409 94.32 90.0809 94.31 89.3809 93.59C88.6809 92.87 88.6909 91.71 89.4109 91.01C90.1309 90.31 91.2909 90.32 91.9909 91.04Z" fill="#182297"/>
<path d="M81.1507 99.5699C81.6407 100.45 81.3307 101.56 80.4507 102.06C79.5707 102.55 78.4607 102.24 77.9607 101.36C77.4707 100.48 77.7807 99.3699 78.6607 98.8699C79.5407 98.3699 80.6507 98.6899 81.1507 99.5699Z" fill="#182297"/>
<path d="M68.4607 104.99C68.7107 105.97 68.1107 106.96 67.1307 107.21C66.1507 107.46 65.1607 106.86 64.9107 105.88C64.6607 104.9 65.2607 103.91 66.2407 103.66C67.2207 103.41 68.2107 104.01 68.4607 104.99Z" fill="#182297"/>
<path d="M54.8007 106.92C54.7807 107.93 53.9507 108.73 52.9407 108.72C51.9307 108.7 51.1307 107.87 51.1407 106.86C51.1607 105.85 51.9907 105.05 53.0007 105.06C54.0107 105.08 54.8107 105.91 54.8007 106.92Z" fill="#182297"/>
<path d="M41.1109 105.23C40.8309 106.2 39.8209 106.76 38.8509 106.48C37.8809 106.2 37.3209 105.19 37.6009 104.22C37.8809 103.25 38.8909 102.69 39.8609 102.97C40.8309 103.25 41.3909 104.26 41.1109 105.23Z" fill="#182297"/>
<path d="M28.3311 100.04C27.8111 100.9 26.6811 101.18 25.8211 100.66C24.9611 100.14 24.6811 99.0099 25.2011 98.1499C25.7211 97.2899 26.8511 97.0099 27.7111 97.5299C28.5711 98.0499 28.8511 99.1799 28.3311 100.04Z" fill="#182297"/>
<path d="M17.3407 91.7C16.6107 92.4 15.4507 92.37 14.7607 91.64C14.0607 90.91 14.0907 89.75 14.8207 89.06C15.5507 88.36 16.7107 88.39 17.4007 89.12C18.1007 89.85 18.0707 91.01 17.3407 91.7Z" fill="#182297"/>
<path d="M8.90089 80.7801C8.01089 81.2601 6.90089 80.9401 6.42089 80.0501C5.94089 79.1601 6.26089 78.0501 7.15089 77.5701C8.04089 77.0901 9.15089 77.4101 9.63089 78.3001C10.1109 79.1901 9.79089 80.3001 8.90089 80.7801Z" fill="#182297"/>
<path d="M3.60065 68.05C2.62065 68.29 1.63064 67.68 1.39064 66.7C1.15064 65.72 1.76065 64.73 2.74065 64.49C3.72065 64.25 4.71065 64.86 4.95065 65.84C5.19065 66.82 4.58065 67.81 3.60065 68.05Z" fill="#182297"/>
<path d="M1.78082 54.37C0.770823 54.34 -0.0291831 53.5001 0.000816944 52.5001C0.0308169 51.4901 0.87082 50.6901 1.87082 50.7201C2.88082 50.7501 3.68082 51.5901 3.65082 52.5901C3.62082 53.6001 2.78082 54.4 1.78082 54.37Z" fill="#182297"/>
<path d="M3.59061 40.7C2.62061 40.41 2.07061 39.3899 2.36061 38.4299C2.65061 37.4599 3.67061 36.91 4.63061 37.2C5.60061 37.49 6.15061 38.51 5.86061 39.47C5.57061 40.44 4.55061 40.99 3.59061 40.7Z" fill="#182297"/>
<path d="M8.90082 27.9601C8.04082 27.4301 7.77082 26.3001 8.30082 25.4501C8.83082 24.5901 9.96082 24.3201 10.8108 24.8501C11.6708 25.3801 11.9408 26.5101 11.4108 27.3601C10.8808 28.2201 9.75082 28.4901 8.90082 27.9601Z" fill="#182297"/>
<path d="M17.3408 17.05C16.6508 16.31 16.6808 15.1599 17.4208 14.4699C18.1508 13.7799 19.3108 13.81 20.0008 14.55C20.6908 15.28 20.6608 16.4399 19.9208 17.1299C19.1908 17.8199 18.0308 17.79 17.3408 17.05Z" fill="#182297"/>
<path d="M28.3206 8.70001C27.8406 7.81001 28.1806 6.70001 29.0706 6.23001C29.9606 5.75001 31.0706 6.09001 31.5406 6.98001C32.0206 7.87001 31.6806 8.98001 30.7906 9.45001C29.9006 9.93001 28.7906 9.59001 28.3206 8.70001Z" fill="#182297"/>
<path d="M41.1007 3.50002C40.8707 2.52002 41.4807 1.53001 42.4707 1.31001C43.4607 1.09001 44.4407 1.69001 44.6607 2.68001C44.8907 3.66001 44.2807 4.65001 43.2907 4.87001C42.3107 5.10001 41.3207 4.49002 41.1007 3.50002Z" fill="#182297"/>
</svg>
