<svg width="123" height="123" viewBox="0 0 123 123" fill="none" xmlns="http://www.w3.org/2000/svg">
<path d="M47.857 26.3237L0 74.1807L47.857 122.038L95.714 74.1807L47.857 26.3237Z" fill="#1A2DC6"/>
<path d="M77.3672 17.6699L50.377 44.6602L77.3672 71.6504L104.358 44.6602L77.3672 17.6699Z" fill="url(#paint0_linear_1_256)"/>
<path d="M34.9637 36.6699L33.4437 36.3799L33.0537 38.9599L34.5837 39.1499L34.9637 36.6699Z" fill="#4D57E2"/>
<path d="M41.8736 20.12L40.6036 19.24C40.0736 19.93 39.6736 20.71 39.2036 21.44L40.5236 22.25C40.9736 21.55 41.3536 20.79 41.8736 20.13V20.12Z" fill="#4D57E2"/>
<path d="M37.5334 27.9999L36.1134 27.3999L35.2134 29.8499L36.6734 30.3599L37.5334 27.9999Z" fill="#4D57E2"/>
<path d="M45.7535 13.0399L44.8735 13.9999L45.9935 15.0599L46.8435 14.1299L47.7736 13.2899L46.7135 12.1599L45.7535 13.0399Z" fill="#4D57E2"/>
<path d="M60.1338 3.39999L60.7238 4.81998L63.0938 3.95999L62.5738 2.5L60.1338 3.39999Z" fill="#4D57E2"/>
<path d="M51.9634 7.87997L52.8434 9.14999C53.5034 8.63999 54.2634 8.26 54.9734 7.81L54.1734 6.48999C53.4434 6.95999 52.6634 7.34997 51.9734 7.87997H51.9634Z" fill="#4D57E2"/>
<path d="M69.0938 0.740112L69.3838 2.2601L71.8638 1.8801L71.6738 0.350098L69.0938 0.740112Z" fill="#4D57E2"/>
<path d="M87.3135 2.68994L89.7535 3.31992L90.1935 1.82993L87.6635 1.17993L87.3135 2.68994Z" fill="#4D57E2"/>
<path d="M78.3936 1.53998L80.9035 1.66998L81.0335 0.129974L78.4335 0L78.3936 1.53998Z" fill="#4D57E2"/>
<path d="M95.8237 5.68002C96.5737 6.05002 97.3437 6.39001 98.0837 6.79001L98.8237 5.43002C98.0537 5.02002 97.2637 4.67003 96.4837 4.28003L95.8237 5.68002Z" fill="#4D57E2"/>
<path d="M112.883 17.57C112.363 16.88 111.863 16.16 111.253 15.54L110.083 16.55C110.673 17.15 111.153 17.84 111.653 18.51L112.883 17.57Z" fill="#4D57E2"/>
<path d="M103.534 10.3899C104.204 10.8899 104.894 11.3699 105.494 11.9599L106.504 10.7899C105.884 10.1799 105.164 9.67991 104.474 9.15991L103.534 10.3899Z" fill="#4D57E2"/>
<path d="M116.354 26.22L117.754 25.56C117.374 24.78 117.014 23.99 116.604 23.22L115.244 23.96C115.634 24.7 115.974 25.47 116.344 26.22H116.354Z" fill="#4D57E2"/>
<path d="M120.484 43.66L122.034 43.63L121.904 41.02L120.364 41.15L120.484 43.66Z" fill="#4D57E2"/>
<path d="M119.344 34.7399L120.854 34.3899L120.204 31.8599L118.724 32.3099L119.344 34.7399Z" fill="#4D57E2"/>
<path d="M119.773 52.6599L121.283 52.9499L121.683 50.3699L120.143 50.1699L119.773 52.6599Z" fill="#4D57E2"/>
<path d="M112.864 69.2101L114.134 70.0901C114.674 69.4001 115.064 68.6201 115.534 67.8901L114.214 67.0901C113.764 67.7901 113.384 68.5501 112.864 69.2101Z" fill="#4D57E2"/>
<path d="M117.193 61.33L118.623 61.93L119.523 59.4799L118.063 58.97L117.193 61.33Z" fill="#4D57E2"/>
<path d="M107.894 75.19L106.954 76.04L108.024 77.16L108.984 76.29L109.864 75.32L108.734 74.26L107.894 75.19Z" fill="#4D57E2"/>
<path d="M91.6436 85.37L92.1535 86.83L94.6035 85.93L94.0035 84.5L91.6436 85.37Z" fill="#4D57E2"/>
<path d="M99.7634 81.5199L100.563 82.8399C101.293 82.3699 102.073 81.9799 102.763 81.4499L101.883 80.1799C101.223 80.6899 100.463 81.0699 99.7534 81.5199H99.7634Z" fill="#4D57E2"/>
<path d="M82.8638 87.4501L83.0638 88.9801L85.6338 88.5901L85.3538 87.0701L82.8638 87.4501Z" fill="#4D57E2"/>
<path d="M64.5435 87.49L67.0634 88.14L67.4235 86.64L64.9835 86.01L64.5435 87.49Z" fill="#4D57E2"/>
<path d="M73.7036 89.1999L76.3036 89.3299L76.3436 87.7799L73.8236 87.6599L73.7036 89.1999Z" fill="#4D57E2"/>
<path d="M55.9038 83.9001C56.6738 84.3101 57.4638 84.66 58.2438 85.05L58.9038 83.6501C58.1538 83.2801 57.3838 82.94 56.6438 82.54L55.9038 83.9001Z" fill="#4D57E2"/>
<path d="M41.8438 71.7501C42.3637 72.4401 42.8638 73.1601 43.4738 73.7801L44.6438 72.7701C44.0538 72.1701 43.5738 71.4801 43.0738 70.8101L41.8438 71.7501Z" fill="#4D57E2"/>
<path d="M48.2236 78.5401C48.8436 79.1501 49.5636 79.6501 50.2536 80.1701L51.1936 78.9401C50.5236 78.4401 49.8336 77.9601 49.2336 77.3701L48.2236 78.5401Z" fill="#4D57E2"/>
<path d="M38.3834 63.1099L36.9834 63.7699C37.3634 64.5499 37.7234 65.3399 38.1334 66.1099L39.4934 65.3699C39.1034 64.6299 38.7634 63.8599 38.3934 63.1099H38.3834Z" fill="#4D57E2"/>
<path d="M34.2436 45.6599L32.7036 45.6999L32.8336 48.2999L34.3736 48.1799L34.2436 45.6599Z" fill="#4D57E2"/>
<path d="M35.3838 54.5801L33.8838 54.9401L34.5338 57.4601L36.0138 57.0201L35.3838 54.5801Z" fill="#4D57E2"/>
<defs>
<linearGradient id="paint0_linear_1_256" x1="90.7174" y1="29.2577" x2="63.9974" y2="60.0577" gradientUnits="userSpaceOnUse">
<stop stop-color="#5A8EFB"/>
<stop offset="1" stop-color="#7CC9FB"/>
</linearGradient>
</defs>
</svg>
