<svg width="40" height="40" viewBox="0 0 40 40" fill="none" xmlns="http://www.w3.org/2000/svg">
<g clip-path="url(#clip0_1_589)">
<path d="M12.2079 15.2564C16.763 13.7448 20.8392 14.5152 20.8392 14.5152L20.8531 15.7024C20.8734 17.6208 21.398 17.7956 21.398 17.7956C22.6384 18.7649 23.7636 17.7285 23.7636 17.7285C23.7636 17.7285 31.698 11.8873 31.9058 11.734C32.1135 11.5794 33.3413 10.8179 33.3451 8.821C33.3464 6.82157 31.6599 5.86873 31.6599 5.86873C31.6599 5.86873 25.1092 1.40866 23.7889 0.510313C22.4661 -0.389303 21.7249 0.172007 21.7249 0.172007C20.7518 0.808074 20.8405 1.6418 20.8405 1.6418V3.9732C13.4788 5.48481 8.32819 9.95629 8.32819 9.95629C1.24909 15.9761 3.19784 24.3413 3.19784 24.3413C3.19784 24.3413 3.21558 24.7163 3.93274 24.7163C4.74746 24.7163 4.75633 24.2146 4.75633 24.2146C5.09337 21.3662 7.65284 16.768 12.2079 15.2564Z" fill="white"/>
<path d="M36.8034 15.6547C36.8034 15.6547 36.7844 15.2822 36.071 15.2822C35.2525 15.2822 35.2474 15.784 35.2474 15.784C34.9078 18.6311 32.3509 23.228 27.7945 24.7421C23.2369 26.2525 19.1633 25.4821 19.1633 25.4821L19.1493 24.2949C19.1303 22.3715 18.607 22.2017 18.607 22.2017C17.3666 21.2311 16.2389 22.2688 16.2389 22.2688C16.2389 22.2688 8.3058 28.1113 8.098 28.2646C7.88893 28.4179 6.66621 29.1794 6.66114 31.1788C6.65608 33.1745 8.34254 34.1298 8.34254 34.1298C8.34254 34.1298 14.8907 38.5886 16.2123 39.4883C17.5338 40.3891 18.2776 39.8291 18.2776 39.8291C19.2494 39.1905 19.162 38.3631 19.162 38.3631V36.0279C26.5249 34.5188 31.6743 30.0423 31.6743 30.0423C38.7534 24.0212 36.8034 15.6547 36.8034 15.6547Z" fill="white"/>
</g>
<defs>
<clipPath id="clip0_1_589">
<rect width="40" height="40" fill="white"/>
</clipPath>
</defs>
</svg>
