<svg width="40" height="40" viewBox="0 0 40 40" fill="none" xmlns="http://www.w3.org/2000/svg">
<path d="M30.3677 8.15984C29.1775 8.57687 27.9259 8.7921 26.6649 8.79673C24.2787 8.78951 21.9524 8.05024 19.9998 6.67871C18.058 8.04487 15.7458 8.78627 13.3717 8.80414C12.0977 8.80117 10.8334 8.58335 9.63184 8.15984V22.2306C9.63184 23.2748 13.3347 29.2956 19.9998 33.3391C26.613 29.2734 30.3677 23.2526 30.3677 22.2306C30.3158 19.2091 30.3677 11.1221 30.3677 8.15984Z" fill="white"/>
<path d="M35.7148 2.56141C35.718 2.15243 35.3891 1.81825 34.9802 1.81501C34.8735 1.81418 34.7679 1.8364 34.6706 1.88009C32.8762 2.70276 30.9274 3.13442 28.9534 3.14646C25.8843 3.10869 22.9117 2.06838 20.4888 0.184193C20.2092 -0.0613975 19.7908 -0.0613975 19.5112 0.184193C17.0925 2.07625 14.1172 3.11748 11.0465 3.14646C9.07257 3.13442 7.12377 2.70276 5.32938 1.88009C4.95632 1.71235 4.51799 1.87889 4.35026 2.25185C4.30656 2.34914 4.28435 2.45468 4.28518 2.56141C4.28518 2.71693 4.33702 17.9874 4.28518 23.0455C4.28518 25.7559 10.5652 34.5242 19.6223 39.9007C19.8514 40.033 20.1338 40.033 20.3629 39.9007C29.4348 34.5242 35.7444 25.7485 35.7148 23.0381C35.663 17.98 35.7148 2.70952 35.7148 2.56141ZM20.3777 34.9019C20.1486 35.0342 19.8662 35.0342 19.6371 34.9019C12.8609 30.8881 8.15093 24.297 8.15093 22.2308C8.18796 18.4836 8.15093 7.18254 8.15093 7.06405C8.14769 6.65507 8.4766 6.32089 8.88557 6.31765C8.99222 6.31682 9.09784 6.33904 9.19513 6.38273C10.4987 6.98222 11.9149 7.29779 13.3497 7.30844C15.5789 7.29677 17.743 6.55547 19.5112 5.19782C19.7908 4.95223 20.2092 4.95223 20.4888 5.19782C22.2469 6.56195 24.4029 7.31362 26.628 7.33806C28.0629 7.32741 29.479 7.01184 30.7826 6.41235C31.1557 6.24461 31.594 6.41115 31.7617 6.78412C31.8054 6.88141 31.8277 6.98694 31.8268 7.09367C31.849 7.20476 31.7898 18.528 31.849 22.2308C31.849 24.297 27.139 30.8881 20.3777 34.9019Z" fill="white"/>
</svg>
