<svg width="40" height="40" viewBox="0 0 40 40" fill="none" xmlns="http://www.w3.org/2000/svg">
<path d="M20 29.375C20.6472 29.375 21.1719 28.8503 21.1719 28.2031C21.1719 27.5559 20.6472 27.0312 20 27.0312C19.3528 27.0312 18.8281 27.5559 18.8281 28.2031C18.8281 28.8503 19.3528 29.375 20 29.375Z" fill="white"/>
<path d="M11.797 25.8595C11.1498 25.8595 10.625 26.384 10.625 27.0313V29.3751C10.625 30.0223 11.1497 30.547 11.7969 30.547C13.6177 30.547 14.7556 32.4626 13.8452 34.0394L13.4938 34.6484C13.1702 35.2088 13.3621 35.9254 13.9227 36.249L15.9526 37.421C16.513 37.7446 17.2298 37.5525 17.5534 36.992L17.9048 36.3832C18.8154 34.8063 21.0913 34.8063 22.0017 36.3834L22.3532 36.992C22.6768 37.5527 23.3934 37.7446 23.954 37.421L25.9839 36.249C26.5444 35.9254 26.7363 35.2088 26.4128 34.6484L26.0613 34.0394C25.1507 32.4626 26.2887 30.547 28.1095 30.547H28.2031C28.8503 30.547 29.375 30.0223 29.375 29.3751V27.0313C29.375 26.384 28.8503 25.8595 28.2031 25.8595H28.1093C26.2885 25.8595 25.1505 23.9438 26.0609 22.367L26.4126 21.7581C26.7362 21.1976 26.5442 20.4809 25.9837 20.1573L23.9538 18.9854C23.3933 18.6617 22.6766 18.8538 22.353 19.4143L22.0015 20.0231C21.0911 21.6 18.8152 21.6 17.9046 20.0231L17.5531 19.4143C17.2295 18.8538 16.5129 18.6619 15.9523 18.9854L13.9224 20.1573C13.362 20.4809 13.17 21.1975 13.4935 21.7581L13.8452 22.367C14.7558 23.9438 13.6177 25.8595 11.797 25.8595ZM20 24.6876C21.9386 24.6876 23.5156 26.2646 23.5156 28.2032C23.5156 30.1418 21.9386 31.7188 20 31.7188C18.0614 31.7188 16.4844 30.1418 16.4844 28.2032C16.4844 26.2646 18.0614 24.6876 20 24.6876Z" fill="white"/>
<path d="M34.859 14.2196C34.1048 12.0143 32.2749 10.3103 30.0021 9.70953C28.6002 5.38359 24.588 2.42188 20 2.42188C16.3837 2.42188 13.0729 4.27352 11.1411 7.31648C10.5895 7.17922 10.0242 7.10938 9.45312 7.10938C5.57586 7.10938 2.34375 10.2634 2.34375 14.1406C2.34375 14.5069 2.37695 14.873 2.44672 15.2564C0.917813 16.3459 0 18.0912 0 20C0 23.2307 2.7068 25.8594 5.9375 25.8594H8.49711C8.9825 24.4983 10.2711 23.5156 11.7969 23.5156L11.4638 22.9297C10.4945 21.2509 11.0724 19.097 12.7513 18.1277L14.7803 16.9559C16.482 15.9761 18.6235 16.5806 19.5823 18.2422L19.9348 18.851L20.3227 18.2422C21.2905 16.568 23.4451 15.982 25.1258 16.9559L27.1559 18.1266C28.8348 19.0982 29.4104 21.2531 28.4411 22.9296L28.0909 23.5384C28.1047 23.5373 28.1195 23.5373 28.1345 23.5373C29.7284 23.5373 31.0171 24.511 31.502 25.8593H34.0625C37.2932 25.8593 40 23.2306 40 19.9999C40 17.0784 37.7716 14.6488 34.859 14.2196Z" fill="white"/>
</svg>
