<svg width="145" height="40" viewBox="0 0 145 40" fill="none" xmlns="http://www.w3.org/2000/svg">
<path d="M111.153 33.6469C111.153 34.3311 111.028 34.8834 110.777 35.3037C110.535 35.7143 110.207 36.0319 109.792 36.2568C109.386 36.4816 108.913 36.6331 108.373 36.7113C107.832 36.7895 107.268 36.8286 106.679 36.8286H103.869C103.252 36.8286 102.668 36.7895 102.117 36.7113C101.577 36.6233 101.104 36.4571 100.698 36.2128C100.293 35.9586 99.9695 35.6067 99.7281 35.1571C99.4965 34.7075 99.3806 34.1112 99.3806 33.3683V32.3273C99.3806 31.6333 99.4965 31.0664 99.7281 30.6265C99.9695 30.1769 100.293 29.825 100.698 29.5708C101.104 29.3069 101.577 29.1261 102.117 29.0283C102.668 28.9208 103.252 28.8671 103.869 28.8671H106.679C107.268 28.8671 107.832 28.9062 108.373 28.9844C108.913 29.0626 109.386 29.2189 109.792 29.4535C110.207 29.6784 110.535 29.996 110.777 30.4066C111.028 30.8171 111.153 31.3596 111.153 32.0341H107.924C107.885 31.6626 107.789 31.3792 107.634 31.1837C107.49 30.9882 107.316 30.8464 107.113 30.7585C106.91 30.6607 106.698 30.607 106.476 30.5972C106.264 30.5776 106.075 30.5679 105.911 30.5679H104.622C104.449 30.5679 104.241 30.5776 104 30.5972C103.768 30.6167 103.541 30.6803 103.319 30.7878C103.107 30.8953 102.923 31.0713 102.769 31.3156C102.615 31.5502 102.537 31.8875 102.537 32.3273V33.3683C102.537 33.8082 102.615 34.1454 102.769 34.38C102.923 34.6146 103.107 34.7857 103.319 34.8932C103.541 35.0007 103.768 35.0642 104 35.0838C104.241 35.1033 104.449 35.1131 104.622 35.1131H105.911C106.075 35.1131 106.264 35.1082 106.476 35.0984C106.698 35.0789 106.91 35.0251 107.113 34.9372C107.316 34.8394 107.494 34.6928 107.649 34.4973C107.803 34.292 107.895 34.0086 107.924 33.6469H111.153Z" fill="#09C6DF"/>
<path d="M94.4544 28.8671C95.024 28.8671 95.5308 28.9648 95.9748 29.1603C96.4189 29.346 96.7905 29.6148 97.0898 29.9667C97.3987 30.3186 97.6352 30.7389 97.7993 31.2277C97.9634 31.7066 98.0455 32.2393 98.0455 32.8258V36.8286H94.8888V32.8258C94.8888 32.601 94.8598 32.3811 94.8019 32.166C94.7537 31.9412 94.6523 31.7408 94.4978 31.5649C94.353 31.3792 94.1455 31.2325 93.8752 31.125C93.6146 31.0077 93.2767 30.9491 92.8616 30.9491L89.647 30.9784V36.8286H86.4903V28.8671H94.4544Z" fill="#09C6DF"/>
<path d="M85.2465 28.7058L80.2219 33.2364V36.8286H77.0652V33.2364L72.0406 28.7058H76.2688L77.0652 29.4389L78.6436 30.8464L81.0328 28.7058H85.2465Z" fill="#09C6DF"/>
<path d="M67.9448 30.7878C68.2054 30.7976 68.5143 30.8416 68.8715 30.9198C69.2287 30.998 69.5666 31.1348 69.8851 31.3303C70.2133 31.5258 70.4885 31.7946 70.7105 32.1367C70.9325 32.4788 71.0435 32.9187 71.0435 33.4563C71.0435 34.1992 70.9132 34.8003 70.6526 35.2597C70.4016 35.7192 70.0685 36.0759 69.6534 36.3301C69.248 36.5744 68.7846 36.7406 68.2633 36.8286C67.7421 36.9068 67.2159 36.9459 66.685 36.9459H63.8758C63.0263 36.9459 62.3216 36.8432 61.7617 36.638C61.2018 36.4327 60.7578 36.1688 60.4296 35.8462C60.1013 35.5237 59.8697 35.162 59.7345 34.7612C59.609 34.3605 59.5463 33.9646 59.5463 33.5736H62.8043C62.8526 33.7007 62.9202 33.8326 63.007 33.9695C63.1036 34.0965 63.2242 34.2138 63.369 34.3214C63.5138 34.4289 63.6876 34.5217 63.8903 34.5999C64.1027 34.6684 64.3537 34.7026 64.6433 34.7026H65.932C66.1348 34.7026 66.3471 34.6879 66.5692 34.6586C66.8008 34.6293 67.0132 34.5706 67.2063 34.4826C67.409 34.3947 67.5731 34.2725 67.6986 34.1161C67.8241 33.9597 67.8869 33.7593 67.8869 33.515C67.8869 33.4661 67.8772 33.3977 67.8579 33.3097C67.8386 33.2119 67.7855 33.1191 67.6986 33.0311C67.6214 32.9334 67.5055 32.8503 67.3511 32.7818C67.1966 32.7036 66.9843 32.6645 66.714 32.6645L64.7012 32.6499H62.6595C62.3892 32.6401 62.0755 32.5961 61.7183 32.5179C61.3611 32.4397 61.0184 32.3029 60.6902 32.1074C60.3716 31.9119 60.1013 31.6431 59.8793 31.301C59.6573 30.9589 59.5463 30.519 59.5463 29.9814C59.5463 29.2287 59.6718 28.6276 59.9228 28.1779C60.1834 27.7185 60.5213 27.3666 60.9364 27.1223C61.3515 26.8681 61.8197 26.702 62.3409 26.6238C62.8622 26.5358 63.3883 26.4918 63.9193 26.4918H66.714C67.5731 26.4918 68.2778 26.5993 68.8281 26.8144C69.388 27.0294 69.832 27.3031 70.1603 27.6354C70.4885 27.958 70.7153 28.3197 70.8408 28.7204C70.976 29.1114 71.0435 29.4926 71.0435 29.8641H67.7855C67.7372 29.7468 67.6648 29.6197 67.5683 29.4829C67.4814 29.346 67.3656 29.2238 67.2208 29.1163C67.076 29.0088 66.9022 28.9208 66.6995 28.8524C66.4968 28.7742 66.2506 28.7351 65.961 28.7351H64.6723C64.4695 28.7351 64.2523 28.7498 64.0206 28.7791C63.789 28.8084 63.5766 28.8671 63.3835 28.955C63.1904 29.043 63.0312 29.1652 62.9057 29.3216C62.7802 29.4682 62.7174 29.6686 62.7174 29.9227C62.7174 29.9716 62.7271 30.0449 62.7464 30.1427C62.7753 30.2404 62.8284 30.3382 62.9057 30.4359C62.9829 30.5239 63.0987 30.607 63.2532 30.6852C63.4077 30.7536 63.62 30.7878 63.8903 30.7878H67.9448Z" fill="#09C6DF"/>
<path d="M144.292 6.57386V22.292H132.06C131.2 22.292 130.422 22.1344 129.725 21.8191C129.043 21.4889 128.465 21.046 127.991 20.4905C127.531 19.92 127.175 19.267 126.923 18.5314C126.671 17.7807 126.545 16.9926 126.545 16.1669C126.545 15.2661 126.671 14.4404 126.923 13.6898C127.175 12.9392 127.531 12.2937 127.991 11.7532C128.465 11.2127 129.043 10.7999 129.725 10.5147C130.422 10.2144 131.2 10.0643 132.06 10.0643H139.444V6.57386H144.292ZM139.444 13.307L134.507 13.262C133.662 13.262 133.017 13.4121 132.572 13.7123C132.127 14.0126 131.816 14.3804 131.638 14.8158C131.475 15.2511 131.393 15.7015 131.393 16.1669C131.393 16.4371 131.438 16.7374 131.527 17.0677C131.616 17.3979 131.771 17.7132 131.994 18.0134C132.231 18.2987 132.55 18.5389 132.95 18.734C133.35 18.9292 133.869 19.0268 134.507 19.0268H139.444V13.307Z" fill="#0E0E0E"/>
<path d="M124.758 10.0643V15.4913C124.758 16.4521 124.573 17.3604 124.202 18.2161C123.846 19.0568 123.357 19.7924 122.734 20.423C122.112 21.0535 121.378 21.5564 120.533 21.9317C119.702 22.292 118.813 22.4722 117.864 22.4722H113.549C112.601 22.4722 111.704 22.292 110.858 21.9317C110.028 21.5564 109.302 21.0535 108.679 20.423C108.056 19.7924 107.56 19.0568 107.189 18.2161C106.833 17.3604 106.655 16.4521 106.655 15.4913V10.0643H111.615V15.4913C111.615 16.3771 111.726 17.0601 111.948 17.5405C112.171 18.0209 112.437 18.3737 112.749 18.5989C113.075 18.8091 113.416 18.9367 113.772 18.9818C114.128 19.0118 114.439 19.0268 114.706 19.0268H116.685C116.952 19.0268 117.263 19.0118 117.619 18.9818C117.99 18.9367 118.331 18.8091 118.642 18.5989C118.968 18.3737 119.243 18.0209 119.465 17.5405C119.688 17.0601 119.799 16.3771 119.799 15.4913V10.0643H124.758Z" fill="#0E0E0E"/>
<path d="M97.9664 9.8391C98.9153 9.8391 99.8048 9.98172 100.635 10.267C101.48 10.5522 102.214 10.9425 102.837 11.4379C103.46 11.9334 103.949 12.5188 104.305 13.1944C104.675 13.855 104.861 14.5681 104.861 15.3337V17.0001C104.861 17.7507 104.675 18.4638 104.305 19.1394C103.949 19.7999 103.46 20.3779 102.837 20.8733C102.214 21.3688 101.48 21.7591 100.635 22.0443C99.8048 22.3296 98.9153 22.4722 97.9664 22.4722H93.6519C92.703 22.4722 91.806 22.3296 90.9609 22.0443C90.1306 21.7591 89.4042 21.3688 88.7815 20.8733C88.1587 20.3779 87.6621 19.7999 87.2914 19.1394C86.9356 18.4638 86.7577 17.7507 86.7577 17.0001V15.3337C86.7577 14.5681 86.9356 13.855 87.2914 13.1944C87.6621 12.5188 88.1587 11.9334 88.7815 11.4379C89.4042 10.9425 90.1306 10.5522 90.9609 10.267C91.806 9.98172 92.703 9.8391 93.6519 9.8391H97.9664ZM99.9012 15.3337C99.9012 14.6281 99.79 14.0877 99.5676 13.7123C99.3452 13.337 99.0709 13.0668 98.7448 12.9017C98.4334 12.7215 98.0924 12.6164 97.7217 12.5864C97.3659 12.5564 97.0545 12.5414 96.7877 12.5414H94.8084C94.5415 12.5414 94.2301 12.5564 93.8743 12.5864C93.5185 12.6164 93.1775 12.7215 92.8513 12.9017C92.5399 13.0668 92.2731 13.337 92.0507 13.7123C91.8283 14.0877 91.7171 14.6281 91.7171 15.3337V17.0001C91.7171 17.6907 91.8283 18.2236 92.0507 18.5989C92.2731 18.9743 92.5399 19.252 92.8513 19.4321C93.1775 19.5973 93.5185 19.6949 93.8743 19.7249C94.2301 19.7549 94.5415 19.7699 94.8084 19.7699H96.7877C97.0545 19.7699 97.3659 19.7549 97.7217 19.7249C98.0924 19.6949 98.4334 19.5973 98.7448 19.4321C99.0709 19.252 99.3452 18.9743 99.5676 18.5989C99.79 18.2236 99.9012 17.6907 99.9012 17.0001V15.3337Z" fill="#0E0E0E"/>
<path d="M79.7335 22.292V6.57386H84.5817V22.292H79.7335Z" fill="#0E0E0E"/>
<path d="M77.627 16.0543C77.5528 16.9551 77.3156 17.8033 76.9153 18.5989C76.5298 19.3796 76.0257 20.0552 75.403 20.6256C74.7951 21.1961 74.0909 21.6465 73.2903 21.9768C72.4897 22.307 71.6446 22.4722 70.755 22.4722H66.4405C65.4916 22.4722 64.5946 22.292 63.7495 21.9317C62.9193 21.5564 62.1928 21.0535 61.5701 20.423C60.9474 19.7924 60.4507 19.0568 60.08 18.2161C59.7242 17.3604 59.5463 16.4521 59.5463 15.4913V13.3746C59.5463 12.4138 59.7242 11.513 60.08 10.6723C60.4507 9.81658 60.9474 9.07345 61.5701 8.44292C62.1928 7.8124 62.9193 7.31698 63.7495 6.95668C64.5946 6.58136 65.4916 6.39371 66.4405 6.39371H70.755C71.6446 6.39371 72.4897 6.55885 73.2903 6.88912C74.0909 7.2194 74.7951 7.66978 75.403 8.24026C76.0257 8.81073 76.5298 9.4863 76.9153 10.267C77.3156 11.0476 77.5528 11.8883 77.627 12.7891H72.6676C72.6083 12.0535 72.46 11.4905 72.2228 11.1002C72.0004 10.6948 71.7335 10.4021 71.4222 10.2219C71.1108 10.0268 70.7846 9.91416 70.4436 9.88413C70.1174 9.85411 69.8283 9.83909 69.5763 9.83909H67.597C67.3301 9.83909 67.0187 9.86161 66.6629 9.90665C66.3071 9.93668 65.9661 10.0643 65.6399 10.2895C65.3285 10.4996 65.0617 10.8449 64.8393 11.3253C64.6169 11.8057 64.5057 12.4888 64.5057 13.3746V15.4913C64.5057 16.3771 64.6169 17.0601 64.8393 17.5405C65.0617 18.021 65.3285 18.3737 65.6399 18.5989C65.9661 18.8091 66.3071 18.9367 66.6629 18.9818C67.0187 19.0118 67.3301 19.0268 67.597 19.0268H69.5763C69.8283 19.0268 70.1174 19.0118 70.4436 18.9818C70.7846 18.9517 71.1108 18.8466 71.4222 18.6665C71.7335 18.4713 72.0078 18.1711 72.245 17.7657C72.4822 17.3604 72.6231 16.7899 72.6676 16.0543H77.627Z" fill="#0E0E0E"/>
<g clip-path="url(#clip0_1_3876)">
<path opacity="0.5" d="M14.9288 11.4102C14.9229 10.154 15.0063 8.89778 15.1666 7.65247C14.62 8.71647 14.1996 9.84795 13.9243 11.0149C13.6517 12.2186 13.5262 13.455 13.5584 14.6847C13.5604 14.7719 13.4947 14.8442 13.4106 14.8462H13.4047H13.402C11.0087 14.8094 8.66862 15.5544 6.79168 16.9701C5.86077 17.6838 5.04811 18.5446 4.39114 19.5091C3.72433 20.4668 3.23621 21.5431 2.92415 22.6555L2.80195 23.0706L2.72049 23.4966C2.67319 23.7815 2.59238 24.0575 2.5799 24.3479C2.55559 24.6349 2.52275 24.9198 2.50238 25.2047L2.50632 26.0635C2.55625 27.2052 2.77239 28.3224 3.13569 29.3762C3.91288 31.4626 5.2833 33.2811 7.05118 34.4678C7.93217 35.0595 8.88542 35.5195 9.88334 35.8174L10.6421 35.996C10.8938 36.0573 11.1546 36.0723 11.4095 36.1153C11.5382 36.1303 11.6644 36.1596 11.7944 36.1637L12.1827 36.1759C12.4488 36.1821 12.6774 36.2039 12.9973 36.1923C15.3992 36.1623 17.8017 36.1521 20.2036 36.1698C22.9267 36.1862 25.6498 36.2386 28.3722 36.3163C27.6588 35.8713 26.965 35.3962 26.2975 34.887C23.8944 33.0596 21.8164 30.8273 20.1221 28.3483C18.4219 25.8706 17.1237 23.1292 16.2427 20.2671C15.3723 17.4023 14.9216 14.4113 14.9282 11.4184C14.9282 11.417 14.9282 11.4157 14.9282 11.4143C14.9282 11.4129 14.9282 11.4122 14.9282 11.4109L14.9288 11.4102Z" fill="url(#paint0_radial_1_3876)"/>
<path d="M48.0153 19.2467C50.2208 20.2112 51.9617 21.8334 53.1226 23.7978C52.3657 20.3325 50.0644 17.2809 46.6614 15.7923C41.0529 13.3385 34.5844 16.0554 32.2141 21.86C30.7754 25.3826 31.1794 29.231 32.9696 32.2621C32.4795 30.0162 32.6359 27.5972 33.5681 25.3144C35.9384 19.5098 42.4069 16.7929 48.0153 19.2467Z" fill="url(#paint1_linear_1_3876)"/>
<path d="M53.5549 26.2544C53.4111 28.0471 52.898 29.7736 52.0479 31.2738C51.1991 32.774 50.0303 34.0425 48.679 34.9886C47.3171 35.9217 45.7719 36.5195 44.1932 36.7322C43.7991 36.7908 43.4016 36.8133 43.0055 36.8221C42.8077 36.8283 42.6093 36.8174 42.4116 36.8174L41.7671 36.7935L39.1747 36.694C37.7215 36.6422 36.2683 36.5972 34.8151 36.5543C32.1643 35.9551 29.5765 34.9293 27.1976 33.4734C24.7873 31.9977 22.5799 30.1035 20.7397 27.8501C18.9035 25.5973 17.4194 23.0011 16.4346 20.1983C15.4348 17.4003 14.9381 14.4066 14.9276 11.4137C14.9276 11.415 14.9276 11.4164 14.9276 11.4177C14.921 14.4107 15.3717 17.4016 16.2422 20.2664C17.1231 23.1285 18.4213 25.87 20.1215 28.3477C21.8158 30.8267 23.8938 33.059 26.297 34.8864C26.9644 35.3955 27.6582 35.8699 28.3716 36.3157C25.6485 36.238 22.9254 36.1855 20.203 36.1692C18.1598 36.1535 16.1167 36.1623 14.0735 36.1828L13.2497 36.1753H12.9258C12.8187 36.1739 12.7044 36.1746 12.6177 36.1705C12.4324 36.1623 12.2459 36.1664 12.0613 36.1453C11.876 36.131 11.6914 36.1167 11.5081 36.0881C11.3235 36.0669 11.1415 36.0349 10.9595 35.9981C10.2316 35.8583 9.52078 35.6293 8.84608 35.3137C8.17336 34.9975 7.52559 34.6158 6.93498 34.1509C6.34438 33.6874 5.8037 33.1544 5.32609 32.5662C4.384 31.3801 3.685 29.9815 3.34403 28.4812C2.99584 26.9858 2.99059 25.3908 3.31447 23.881C3.47477 23.1238 3.73033 22.3883 4.06143 21.6903C4.39057 20.991 4.79132 20.323 5.27221 19.7177C6.22481 18.4997 7.45727 17.5114 8.84214 16.842C9.53655 16.5101 10.271 16.2681 11.0246 16.1052C11.401 16.0207 11.784 15.9689 12.1697 15.9273L12.7537 15.8898L13.4021 15.8687L14.5781 15.8298L14.5433 14.684C14.5045 13.3985 14.6326 12.1021 14.9361 10.8431C14.9328 11.032 14.9282 11.2208 14.9289 11.4102C14.9289 11.4116 14.9289 11.4123 14.9289 11.4137C14.9295 11.2146 14.9368 11.0156 14.942 10.8172C15.0544 10.3558 15.1884 9.89979 15.3487 9.45129C15.9393 7.76771 16.859 6.1925 18.0357 4.83064C19.2175 3.47218 20.6701 2.35025 22.2855 1.52277C23.9063 0.704153 25.6971 0.200441 27.5472 0.0450331C25.6978 -0.109011 23.7906 0.138414 21.9932 0.787991C20.1892 1.42325 18.5067 2.47226 17.0673 3.82253C15.6226 5.1694 14.4395 6.84003 13.611 8.70084C12.9482 10.199 12.5178 11.8206 12.3451 13.4769C12.2445 13.4769 12.1434 13.4769 12.0435 13.4783C11.5666 13.496 11.0883 13.5307 10.614 13.6037C9.66466 13.7455 8.72849 14.0051 7.83174 14.3746C6.93695 14.7481 6.08028 15.2273 5.28601 15.8032C4.49371 16.3819 3.77106 17.0642 3.12461 17.8188C1.83171 19.3272 0.884368 21.1703 0.400845 23.1449C0.157769 24.1312 0.0244059 25.1482 0.00404009 26.1665C-0.0150118 27.1848 0.091416 28.2072 0.302958 29.2065C0.722099 31.2077 1.61557 33.0999 2.87168 34.6805C4.13173 36.2557 5.73603 37.5419 7.55121 38.3619C8.45519 38.7777 9.40844 39.0783 10.3807 39.2589C10.6238 39.3059 10.8676 39.3468 11.1126 39.3741C11.357 39.4102 11.6034 39.4286 11.8491 39.4464C12.0948 39.4702 12.3411 39.4668 12.5875 39.475L12.9278 39.477H13.2517L14.0768 39.4689C16.12 39.4893 18.1625 39.4975 20.2056 39.4825C25.01 39.4539 29.8143 39.323 34.6187 39.111L34.7277 39.1062C34.7507 39.1056 34.7731 39.0994 34.7961 39.0974C36.2565 39.0537 37.7169 39.0088 39.1773 38.9563L41.7697 38.8568L42.4214 38.8309C42.6559 38.8138 42.8898 38.809 43.1231 38.7804C43.5888 38.7286 44.0527 38.6598 44.5079 38.5514C46.3376 38.1506 48.0398 37.2645 49.4542 36.0628C52.3139 33.6711 53.8552 29.8465 53.5576 26.2551L53.5549 26.2544Z" fill="url(#paint2_linear_1_3876)"/>
</g>
<defs>
<radialGradient id="paint0_radial_1_3876" cx="0" cy="0" r="1" gradientUnits="userSpaceOnUse" gradientTransform="translate(28.0654 15.7248) scale(32.8579 34.0909)">
<stop offset="0.31" stop-color="#333296"/>
<stop offset="0.34" stop-color="#2C439E"/>
<stop offset="0.44" stop-color="#1F6AB1"/>
<stop offset="0.53" stop-color="#138AC1"/>
<stop offset="0.63" stop-color="#0BA4CE"/>
<stop offset="0.74" stop-color="#04B5D7"/>
<stop offset="0.85" stop-color="#01C0DC"/>
<stop offset="0.98" stop-color="#00C4DE"/>
</radialGradient>
<linearGradient id="paint1_linear_1_3876" x1="31.3417" y1="23.575" x2="53.1219" y2="23.575" gradientUnits="userSpaceOnUse">
<stop stop-color="#C5F9F7"/>
<stop offset="0.39" stop-color="#00C4DE"/>
<stop offset="1" stop-color="#333296"/>
</linearGradient>
<linearGradient id="paint2_linear_1_3876" x1="9.8318e-05" y1="19.7443" x2="53.5917" y2="19.7443" gradientUnits="userSpaceOnUse">
<stop stop-color="#C5F9F7"/>
<stop offset="0.39" stop-color="#00C4DE"/>
<stop offset="1" stop-color="#333296"/>
</linearGradient>
<clipPath id="clip0_1_3876">
<rect width="53.5916" height="39.4886" fill="white"/>
</clipPath>
</defs>
</svg>
