<svg width="169" height="46" viewBox="0 0 169 46" fill="none" xmlns="http://www.w3.org/2000/svg">
<path d="M129.534 38.6368C129.534 39.5776 129.388 40.3369 129.096 40.9149C128.815 41.4793 128.432 41.9161 127.949 42.2253C127.477 42.5344 126.926 42.7427 126.296 42.8502C125.666 42.9577 125.008 43.0115 124.322 43.0115H121.05C120.33 43.0115 119.65 42.9577 119.009 42.8502C118.379 42.7292 117.828 42.5008 117.356 42.1648C116.883 41.8153 116.507 41.3315 116.226 40.7133C115.956 40.095 115.821 39.2752 115.821 38.2538V36.8224C115.821 35.8682 115.956 35.0887 116.226 34.4839C116.507 33.8656 116.883 33.3818 117.356 33.0324C117.828 32.6695 118.379 32.4209 119.009 32.2865C119.65 32.1386 120.33 32.0647 121.05 32.0647H124.322C125.008 32.0647 125.666 32.1185 126.296 32.226C126.926 32.3335 127.477 32.5485 127.949 32.8711C128.432 33.1802 128.815 33.617 129.096 34.1815C129.388 34.746 129.534 35.4919 129.534 36.4192H125.773C125.728 35.9085 125.615 35.5187 125.436 35.25C125.267 34.9812 125.064 34.7863 124.828 34.6653C124.592 34.5309 124.345 34.457 124.086 34.4436C123.839 34.4167 123.619 34.4032 123.428 34.4032H121.927C121.725 34.4032 121.483 34.4167 121.202 34.4436C120.932 34.4704 120.668 34.5578 120.409 34.7056C120.161 34.8535 119.948 35.0954 119.768 35.4314C119.588 35.7539 119.498 36.2176 119.498 36.8224V38.2538C119.498 38.8586 119.588 39.3222 119.768 39.6448C119.948 39.9674 120.161 40.2025 120.409 40.3504C120.668 40.4982 120.932 40.5856 121.202 40.6125C121.483 40.6393 121.725 40.6528 121.927 40.6528H123.428C123.619 40.6528 123.839 40.6461 124.086 40.6326C124.345 40.6057 124.592 40.5318 124.828 40.4109C125.064 40.2765 125.272 40.0749 125.452 39.8061C125.632 39.5238 125.739 39.1341 125.773 38.6368H129.534Z" fill="#09C6DF"/>
<path d="M110.083 32.0647C110.746 32.0647 111.336 32.1991 111.854 32.4679C112.371 32.7233 112.804 33.0928 113.152 33.5767C113.512 34.0605 113.788 34.6384 113.979 35.3104C114.17 35.969 114.266 36.7015 114.266 37.5079V43.0115H110.589V37.5079C110.589 37.1987 110.555 36.8963 110.487 36.6007C110.431 36.2915 110.313 36.016 110.133 35.7741C109.964 35.5187 109.723 35.3172 109.408 35.1693C109.104 35.008 108.711 34.9274 108.227 34.9274L104.482 34.9677V43.0115H100.805V32.0647H110.083Z" fill="#09C6DF"/>
<path d="M99.3562 31.843L93.503 38.0724V43.0116H89.8258V38.0724L83.9727 31.843H88.8981L89.8258 32.851L91.6644 34.7864L94.4476 31.843H99.3562Z" fill="#09C6DF"/>
<path d="M79.2014 34.7057C79.505 34.7191 79.8648 34.7796 80.2809 34.8871C80.697 34.9946 81.0906 35.1828 81.4616 35.4516C81.844 35.7204 82.1645 36.09 82.4231 36.5604C82.6818 37.0308 82.8111 37.6356 82.8111 38.3747C82.8111 39.3962 82.6593 40.2227 82.3556 40.8544C82.0633 41.4861 81.6753 41.9766 81.1918 42.3261C80.7195 42.6621 80.1797 42.8906 79.5724 43.0115C78.9652 43.119 78.3523 43.1728 77.7338 43.1728H74.4615C73.4719 43.1728 72.651 43.0317 71.9988 42.7494C71.3465 42.4672 70.8293 42.1043 70.4469 41.6608C70.0646 41.2173 69.7947 40.72 69.6373 40.169C69.4911 39.6179 69.418 39.0736 69.418 38.536H73.2132C73.2695 38.7107 73.3482 38.8922 73.4494 39.0803C73.5618 39.2551 73.7024 39.4163 73.8711 39.5642C74.0398 39.712 74.2422 39.8397 74.4783 39.9472C74.7257 40.0413 75.0181 40.0883 75.3555 40.0883H76.8567C77.0929 40.0883 77.3403 40.0682 77.5989 40.0279C77.8688 39.9875 78.1162 39.9069 78.3411 39.7859C78.5772 39.665 78.7684 39.497 78.9146 39.2819C79.0608 39.0669 79.1339 38.7914 79.1339 38.4554C79.1339 38.3882 79.1226 38.2941 79.1001 38.1732C79.0776 38.0388 79.0158 37.9111 78.9146 37.7901C78.8246 37.6557 78.6897 37.5415 78.5098 37.4474C78.3298 37.3399 78.0824 37.2861 77.7676 37.2861L75.4229 37.266H73.0446C72.7297 37.2525 72.3642 37.192 71.9482 37.0845C71.5321 36.977 71.1329 36.7888 70.7505 36.52C70.3794 36.2512 70.0646 35.8816 69.8059 35.4113C69.5473 34.9409 69.418 34.3361 69.418 33.5969C69.418 32.562 69.5642 31.7354 69.8565 31.1172C70.1602 30.4855 70.5537 30.0017 71.0373 29.6657C71.5208 29.3163 72.0662 29.0878 72.6735 28.9803C73.2807 28.8593 73.8936 28.7988 74.5121 28.7988H77.7676C78.7684 28.7988 79.5893 28.9467 80.2303 29.2423C80.8825 29.538 81.3998 29.9143 81.7821 30.3713C82.1645 30.8148 82.4287 31.3121 82.5749 31.8631C82.7324 32.4007 82.8111 32.9249 82.8111 33.4356H79.0158C78.9596 33.2743 78.8752 33.0996 78.7628 32.9114C78.6616 32.7233 78.5266 32.5553 78.358 32.4074C78.1893 32.2596 77.9869 32.1386 77.7507 32.0446C77.5146 31.937 77.2278 31.8833 76.8904 31.8833H75.3892C75.1531 31.8833 74.9 31.9034 74.6301 31.9438C74.3603 31.9841 74.1129 32.0647 73.888 32.1857C73.6631 32.3066 73.4775 32.4746 73.3313 32.6897C73.1851 32.8913 73.112 33.1668 73.112 33.5162C73.112 33.5834 73.1233 33.6842 73.1458 33.8186C73.1795 33.953 73.2414 34.0874 73.3313 34.2218C73.4213 34.3428 73.5562 34.457 73.7362 34.5645C73.9161 34.6586 74.1635 34.7057 74.4783 34.7057H79.2014Z" fill="#09C6DF"/>
<path d="M168.138 1.4126V23.0245H153.889C152.887 23.0245 151.981 22.8078 151.169 22.3743C150.375 21.9202 149.701 21.3112 149.148 20.5475C148.613 19.7631 148.198 18.8652 147.905 17.8537C147.611 16.8217 147.464 15.738 147.464 14.6027C147.464 13.3642 147.611 12.2289 147.905 11.1968C148.198 10.1647 148.613 9.2771 149.148 8.534C149.701 7.79089 150.375 7.22325 151.169 6.83105C151.981 6.41822 152.887 6.2118 153.889 6.2118H162.49V1.4126H168.138ZM162.49 10.6704L156.739 10.6085C155.754 10.6085 155.003 10.8149 154.485 11.2277C153.967 11.6406 153.604 12.1463 153.397 12.7449C153.207 13.3435 153.112 13.9628 153.112 14.6027C153.112 14.9742 153.164 15.3871 153.267 15.8412C153.371 16.2953 153.552 16.7288 153.811 17.1416C154.088 17.5338 154.459 17.8641 154.925 18.1324C155.392 18.4007 155.996 18.5349 156.739 18.5349H162.49V10.6704Z" fill="white"/>
<path d="M145.383 6.21167V13.6737C145.383 14.9947 145.167 16.2436 144.735 17.4201C144.321 18.5761 143.751 19.5875 143.025 20.4545C142.3 21.3214 141.445 22.0129 140.461 22.529C139.493 23.0244 138.457 23.2721 137.352 23.2721H132.326C131.221 23.2721 130.176 23.0244 129.191 22.529C128.224 22.0129 127.378 21.3214 126.652 20.4545C125.927 19.5875 125.348 18.5761 124.917 17.4201C124.502 16.2436 124.295 14.9947 124.295 13.6737V6.21167H130.072V13.6737C130.072 14.8915 130.202 15.8307 130.461 16.4913C130.72 17.1518 131.031 17.6369 131.393 17.9465C131.773 18.2355 132.171 18.4109 132.585 18.4729C133 18.5141 133.362 18.5348 133.673 18.5348H135.979C136.29 18.5348 136.652 18.5141 137.067 18.4729C137.499 18.4109 137.896 18.2355 138.259 17.9465C138.639 17.6369 138.958 17.1518 139.217 16.4913C139.476 15.8307 139.606 14.8915 139.606 13.6737V6.21167H145.383Z" fill="white"/>
<path d="M114.173 5.9021C115.279 5.9021 116.315 6.0982 117.282 6.49039C118.266 6.88258 119.121 7.41927 119.847 8.10044C120.572 8.78162 121.142 9.58665 121.557 10.5155C121.988 11.4238 122.204 12.4042 122.204 13.457V15.7482C122.204 16.7803 121.988 17.7608 121.557 18.6897C121.142 19.5979 120.572 20.3926 119.847 21.0738C119.121 21.755 118.266 22.2916 117.282 22.6838C116.315 23.076 115.279 23.2721 114.173 23.2721H109.147C108.042 23.2721 106.997 23.076 106.013 22.6838C105.045 22.2916 104.199 21.755 103.474 21.0738C102.748 20.3926 102.17 19.5979 101.738 18.6897C101.323 17.7608 101.116 16.7803 101.116 15.7482V13.457C101.116 12.4042 101.323 11.4238 101.738 10.5155C102.17 9.58665 102.748 8.78162 103.474 8.10044C104.199 7.41927 105.045 6.88258 106.013 6.49039C106.997 6.0982 108.042 5.9021 109.147 5.9021H114.173ZM116.427 13.457C116.427 12.4868 116.298 11.7437 116.038 11.2277C115.779 10.7116 115.46 10.3401 115.08 10.113C114.717 9.86531 114.32 9.72082 113.888 9.67954C113.474 9.63825 113.111 9.61761 112.8 9.61761H110.494C110.184 9.61761 109.821 9.63825 109.406 9.67954C108.992 9.72082 108.595 9.86531 108.215 10.113C107.852 10.3401 107.541 10.7116 107.282 11.2277C107.023 11.7437 106.893 12.4868 106.893 13.457V15.7482C106.893 16.6977 107.023 17.4305 107.282 17.9466C107.541 18.4626 107.852 18.8445 108.215 19.0922C108.595 19.3192 108.992 19.4534 109.406 19.4947C109.821 19.536 110.184 19.5566 110.494 19.5566H112.8C113.111 19.5566 113.474 19.536 113.888 19.4947C114.32 19.4534 114.717 19.3192 115.08 19.0922C115.46 18.8445 115.779 18.4626 116.038 17.9466C116.298 17.4305 116.427 16.6977 116.427 15.7482V13.457Z" fill="white"/>
<path d="M92.9341 23.0245V1.4126H98.5817V23.0245H92.9341Z" fill="white"/>
<path d="M90.4801 14.448C90.3937 15.6865 90.1174 16.8528 89.6511 17.9468C89.202 19.0201 88.6148 19.949 87.8894 20.7334C87.1813 21.5178 86.3609 22.137 85.4283 22.5912C84.4956 23.0453 83.5112 23.2723 82.4749 23.2723H77.449C76.3437 23.2723 75.2988 23.0246 74.3143 22.5292C73.3471 22.0132 72.5009 21.3217 71.7755 20.4547C71.0501 19.5878 70.4715 18.5763 70.0397 17.4204C69.6252 16.2438 69.418 14.995 69.418 13.6739V10.7634C69.418 9.44237 69.6252 8.20387 70.0397 7.04793C70.4715 5.87135 71.0501 4.84959 71.7755 3.98264C72.5009 3.11568 73.3471 2.43451 74.3143 1.9391C75.2988 1.42306 76.3437 1.16504 77.449 1.16504H82.4749C83.5112 1.16504 84.4956 1.3921 85.4283 1.84622C86.3609 2.30033 87.1813 2.91959 87.8894 3.70397C88.6148 4.48836 89.202 5.41724 89.6511 6.49061C90.1174 7.56398 90.3937 8.71991 90.4801 9.95842H84.7029C84.6338 8.94697 84.4611 8.17291 84.1848 7.63622C83.9257 7.07889 83.6148 6.67638 83.2521 6.42868C82.8894 6.16034 82.5095 6.00553 82.1122 5.96424C81.7323 5.92296 81.3955 5.90232 81.1019 5.90232H78.7962C78.4853 5.90232 78.1226 5.93328 77.7081 5.9952C77.2936 6.03649 76.8964 6.21194 76.5164 6.52157C76.1537 6.81055 75.8428 7.28531 75.5838 7.94585C75.3247 8.60638 75.1952 9.54558 75.1952 10.7634V13.6739C75.1952 14.8918 75.3247 15.831 75.5838 16.4915C75.8428 17.1521 76.1537 17.6371 76.5164 17.9468C76.8964 18.2358 77.2936 18.4112 77.7081 18.4731C78.1226 18.5144 78.4853 18.5351 78.7962 18.5351H81.1019C81.3955 18.5351 81.7323 18.5144 82.1122 18.4731C82.5095 18.4318 82.8894 18.2874 83.2521 18.0397C83.6148 17.7713 83.9343 17.3585 84.2107 16.8012C84.487 16.2438 84.6511 15.4594 84.7029 14.448H90.4801Z" fill="white"/>
<g clip-path="url(#clip0_1_324)">
<path opacity="0.5" d="M17.3905 13.2917C17.3836 11.8283 17.4808 10.365 17.6675 8.91431C17.0308 10.1538 16.541 11.4718 16.2204 12.8311C15.9028 14.2334 15.7566 15.6737 15.7941 17.1061C15.7964 17.2077 15.7199 17.2919 15.6219 17.2943H15.615H15.612C12.824 17.2514 10.0981 18.1192 7.91162 19.7684C6.8272 20.5997 5.88054 21.6025 5.11525 22.7261C4.33848 23.8416 3.76987 25.0954 3.40636 26.3912L3.26401 26.8747L3.16912 27.371C3.11401 27.7029 3.01988 28.0245 3.00534 28.3627C2.97703 28.697 2.93876 29.0289 2.91504 29.3608L2.91963 30.3612C2.97779 31.6912 3.22957 32.9926 3.65278 34.2201C4.55812 36.6506 6.15451 38.769 8.21391 40.1513C9.24017 40.8405 10.3506 41.3765 11.5131 41.7235L12.397 41.9315C12.6901 42.003 12.9939 42.0204 13.2908 42.0704C13.4408 42.0879 13.5878 42.1221 13.7393 42.1268L14.1916 42.1411C14.5015 42.1483 14.7679 42.1737 15.1406 42.1602C17.9385 42.1252 20.7371 42.1133 23.535 42.134C26.7072 42.153 29.8793 42.2142 33.0506 42.3047C32.2195 41.7862 31.4114 41.2328 30.6339 40.6396C27.8344 38.5109 25.4138 35.9105 23.4401 33.0227C21.4596 30.1365 19.9473 26.943 18.9211 23.609C17.9071 20.2718 17.3821 16.7877 17.3897 13.3012C17.3897 13.2996 17.3897 13.298 17.3897 13.2964C17.3897 13.2948 17.3897 13.294 17.3897 13.2925L17.3905 13.2917Z" fill="url(#paint0_radial_1_324)"/>
<path d="M55.9326 22.4204C58.5017 23.5439 60.5297 25.4336 61.882 27.722C61.0004 23.6852 58.3195 20.1305 54.3553 18.3964C47.8221 15.5379 40.287 18.7028 37.5258 25.4646C35.8498 29.568 36.3205 34.051 38.4059 37.5819C37.835 34.9657 38.0171 32.1478 39.1031 29.4886C41.8643 22.7269 49.3993 19.562 55.9326 22.4204Z" fill="url(#paint1_linear_1_324)"/>
<path d="M62.3856 30.5835C62.218 32.6718 61.6203 34.683 60.63 36.4306C59.6413 38.1782 58.2798 39.6558 56.7056 40.7579C55.1192 41.8449 53.3192 42.5413 51.4802 42.789C51.021 42.8573 50.558 42.8835 50.0966 42.8938C49.8662 42.9009 49.6351 42.8882 49.4048 42.8882L48.654 42.8604L45.6342 42.7445C43.9413 42.6842 42.2485 42.6318 40.5557 42.5818C37.4678 41.8838 34.4533 40.6888 31.6822 38.9928C28.8743 37.2738 26.3029 35.0673 24.1594 32.4423C22.0204 29.8181 20.2916 26.7937 19.1444 23.5288C17.9796 20.2694 17.4011 16.7821 17.3888 13.2956C17.3888 13.2972 17.3888 13.2988 17.3888 13.3004C17.3812 16.7869 17.9062 20.271 18.9202 23.6082C19.9464 26.9422 21.4586 30.1357 23.4392 33.0219C25.4129 35.9097 27.8335 38.5101 30.6329 40.6388C31.4105 41.2319 32.2186 41.7846 33.0497 42.3038C29.8776 42.2133 26.7055 42.1522 23.5341 42.1331C21.1541 42.1149 18.774 42.1252 16.3939 42.149L15.4343 42.1403H15.057C14.9322 42.1387 14.7991 42.1395 14.6981 42.1347C14.4823 42.1252 14.2649 42.13 14.0499 42.1053C13.8341 42.0887 13.619 42.072 13.4055 42.0387C13.1904 42.014 12.9785 41.9767 12.7665 41.9338C11.9185 41.7711 11.0905 41.5043 10.3045 41.1367C9.52088 40.7682 8.7663 40.3236 8.0783 39.7821C7.39031 39.2422 6.76047 38.6212 6.20411 37.936C5.10668 36.5544 4.29241 34.9251 3.89523 33.1775C3.48962 31.4355 3.4835 29.5775 3.86079 27.8188C4.04752 26.9366 4.34522 26.0799 4.73092 25.2668C5.11434 24.4522 5.58116 23.6741 6.14135 22.969C7.25103 21.5501 8.68671 20.3988 10.2999 19.6191C11.1089 19.2324 11.9644 18.9505 12.8422 18.7608C13.2807 18.6623 13.7269 18.602 14.1761 18.5535L14.8565 18.5098L15.6118 18.4852L16.9817 18.44L16.9411 17.1052C16.896 15.6078 17.0452 14.0976 17.3988 12.631C17.395 12.851 17.3896 13.0709 17.3904 13.2916C17.3904 13.2932 17.3904 13.294 17.3904 13.2956C17.3911 13.0638 17.3995 12.8319 17.4057 12.6009C17.5365 12.0633 17.6926 11.5321 17.8794 11.0097C18.5674 9.04846 19.6388 7.21351 21.0094 5.62709C22.3862 4.04463 24.0782 2.7377 25.9601 1.77377C27.8481 0.820171 29.9342 0.2334 32.0893 0.0523669C29.935 -0.127079 27.7134 0.161146 25.6195 0.917834C23.518 1.65785 21.5581 2.87983 19.8814 4.45275C18.1985 6.02171 16.8202 7.96782 15.8552 10.1355C15.083 11.8807 14.5817 13.7696 14.3805 15.6991C14.2634 15.6991 14.1455 15.6991 14.0292 15.7007C13.4736 15.7213 12.9165 15.7618 12.3639 15.8468C11.2581 16.0119 10.1675 16.3144 9.12293 16.7448C8.0806 17.1799 7.08266 17.7381 6.15743 18.409C5.23449 19.0831 4.39267 19.8779 3.63962 20.7569C2.13353 22.514 1.02998 24.661 0.466726 26.9613C0.183569 28.1102 0.0282149 29.2948 0.00449086 30.4811C-0.0177026 31.6673 0.106274 32.8583 0.352698 34.0224C0.840953 36.3536 1.88175 38.5577 3.34498 40.399C4.81281 42.234 6.68165 43.7323 8.79615 44.6875C9.84919 45.1718 10.9596 45.522 12.0923 45.7324C12.3754 45.7872 12.6593 45.8348 12.9448 45.8666C13.2295 45.9086 13.5165 45.9301 13.8027 45.9507C14.0889 45.9785 14.3759 45.9745 14.6629 45.9841L15.0593 45.9865H15.4366L16.3978 45.9769C18.7778 46.0007 21.1571 46.0103 23.5372 45.9928C29.1337 45.9595 34.7303 45.807 40.3269 45.5601L40.4539 45.5545C40.4807 45.5537 40.5067 45.5466 40.5335 45.5442C42.2347 45.4934 43.936 45.441 45.6372 45.3798L48.6571 45.2639L49.4162 45.2337C49.6894 45.2139 49.9619 45.2083 50.2336 45.175C50.7762 45.1146 51.3164 45.0344 51.8468 44.9082C53.9781 44.4413 55.961 43.4091 57.6087 42.0093C60.94 39.2231 62.7353 34.7679 62.3887 30.5843L62.3856 30.5835Z" fill="url(#paint2_linear_1_324)"/>
</g>
<defs>
<radialGradient id="paint0_radial_1_324" cx="0" cy="0" r="1" gradientUnits="userSpaceOnUse" gradientTransform="translate(32.6933 18.3177) scale(38.276 39.7123)">
<stop offset="0.31" stop-color="#333296"/>
<stop offset="0.34" stop-color="#2C439E"/>
<stop offset="0.44" stop-color="#1F6AB1"/>
<stop offset="0.53" stop-color="#138AC1"/>
<stop offset="0.63" stop-color="#0BA4CE"/>
<stop offset="0.74" stop-color="#04B5D7"/>
<stop offset="0.85" stop-color="#01C0DC"/>
<stop offset="0.98" stop-color="#00C4DE"/>
</radialGradient>
<linearGradient id="paint1_linear_1_324" x1="36.5095" y1="27.4623" x2="61.8812" y2="27.4623" gradientUnits="userSpaceOnUse">
<stop stop-color="#C5F9F7"/>
<stop offset="0.39" stop-color="#00C4DE"/>
<stop offset="1" stop-color="#333296"/>
</linearGradient>
<linearGradient id="paint2_linear_1_324" x1="-0.000100879" y1="23" x2="62.4285" y2="23" gradientUnits="userSpaceOnUse">
<stop stop-color="#C5F9F7"/>
<stop offset="0.39" stop-color="#00C4DE"/>
<stop offset="1" stop-color="#333296"/>
</linearGradient>
<clipPath id="clip0_1_324">
<rect width="62.4286" height="46" fill="white"/>
</clipPath>
</defs>
</svg>
